<svg version="1.0" preserveAspectRatio="xMidYMid meet" height="250" viewBox="0 0 340.5 187.499995" zoomAndPan="magnify" width="454" xmlns:xlink="http://www.w3.org/1999/xlink" xmlns="http://www.w3.org/2000/svg"><defs><clipPath id="ecffbde53e"><path clip-rule="nonzero" d="M 279 64.875 L 335.410156 64.875 L 335.410156 146.527344 L 279 146.527344 Z M 279 64.875"></path></clipPath><clipPath id="0e18cef723"><path clip-rule="nonzero" d="M 85 64.875 L 142 64.875 L 142 146.527344 L 85 146.527344 Z M 85 64.875"></path></clipPath><clipPath id="d1263952ba"><path clip-rule="nonzero" d="M 24 64.875 L 81 64.875 L 81 146.527344 L 24 146.527344 Z M 24 64.875"></path></clipPath><clipPath id="8e3475613c"><path clip-rule="nonzero" d="M 146 64.875 L 203 64.875 L 203 146.527344 L 146 146.527344 Z M 146 64.875"></path></clipPath><clipPath id="99d6ddc992"><path clip-rule="nonzero" d="M 207 64.875 L 274 64.875 L 274 146.527344 L 207 146.527344 Z M 207 64.875"></path></clipPath></defs><g clip-path="url(#ecffbde53e)"><path fill-rule="nonzero" fill-opacity="1" d="M 335.046875 85.253906 L 335.046875 80.175781 L 329.972656 80.175781 L 329.972656 75.097656 L 324.902344 75.097656 L 324.902344 80.175781 L 319.828125 80.175781 L 319.828125 75.097656 L 324.902344 75.097656 L 324.902344 69.953125 L 319.828125 69.953125 L 319.828125 64.875 L 314.753906 64.875 L 314.753906 69.953125 L 289.25 69.953125 L 289.25 64.875 L 284.179688 64.875 L 284.179688 69.953125 L 279.105469 69.953125 L 279.105469 75.03125 L 284.179688 75.03125 L 284.179688 136.234375 L 279.105469 136.234375 L 279.105469 141.3125 L 284.179688 141.3125 L 284.179688 146.390625 L 289.25 146.390625 L 289.25 141.3125 L 314.753906 141.3125 L 314.753906 146.390625 L 319.828125 146.390625 L 319.828125 141.3125 L 324.902344 141.3125 L 324.902344 136.234375 L 319.828125 136.234375 L 319.828125 131.15625 L 324.902344 131.15625 L 324.902344 136.234375 L 329.972656 136.234375 L 329.972656 131.15625 L 335.046875 131.15625 L 335.046875 126.082031 L 329.972656 126.082031 L 329.972656 85.253906 Z M 324.832031 126.082031 L 319.757812 126.082031 L 319.757812 121.003906 L 314.6875 121.003906 L 314.6875 126.082031 L 309.613281 126.082031 L 309.613281 131.15625 L 314.6875 131.15625 L 314.6875 136.234375 L 289.183594 136.234375 L 289.183594 75.097656 L 314.6875 75.097656 L 314.6875 80.175781 L 309.613281 80.175781 L 309.613281 85.253906 L 314.6875 85.253906 L 314.6875 90.332031 L 319.757812 90.332031 L 319.757812 85.253906 L 324.832031 85.253906 Z M 324.832031 126.082031" fill="#cfc7b8"></path></g><g clip-path="url(#0e18cef723)"><path fill-rule="nonzero" fill-opacity="1" d="M 136.300781 75.097656 L 131.230469 75.097656 L 131.230469 80.175781 L 126.15625 80.175781 L 126.15625 75.097656 L 131.230469 75.097656 L 131.230469 69.953125 L 126.15625 69.953125 L 126.15625 64.875 L 121.082031 64.875 L 121.082031 69.953125 L 105.726562 69.953125 L 105.726562 64.875 L 100.652344 64.875 L 100.652344 69.953125 L 95.578125 69.953125 L 95.578125 75.03125 L 100.652344 75.03125 L 100.652344 80.109375 L 95.578125 80.109375 L 95.578125 75.03125 L 90.507812 75.03125 L 90.507812 80.109375 L 85.433594 80.109375 L 85.433594 85.183594 L 90.507812 85.183594 L 90.507812 126.011719 L 85.433594 126.011719 L 85.433594 131.089844 L 90.507812 131.089844 L 90.507812 136.167969 L 95.578125 136.167969 L 95.578125 131.089844 L 100.652344 131.089844 L 100.652344 136.167969 L 95.578125 136.167969 L 95.578125 141.242188 L 100.652344 141.242188 L 100.652344 146.320312 L 105.726562 146.320312 L 105.726562 141.242188 L 121.015625 141.242188 L 121.015625 146.320312 L 126.085938 146.320312 L 126.085938 141.242188 L 131.160156 141.242188 L 131.160156 136.167969 L 126.085938 136.167969 L 126.085938 131.089844 L 131.160156 131.089844 L 131.160156 136.167969 L 136.234375 136.167969 L 136.234375 131.089844 L 141.308594 131.089844 L 141.308594 126.011719 L 136.234375 126.011719 L 136.234375 85.253906 L 141.308594 85.253906 L 141.308594 80.175781 L 136.234375 80.175781 L 136.234375 75.097656 Z M 131.160156 126.082031 L 126.085938 126.082031 L 126.085938 121.003906 L 121.015625 121.003906 L 121.015625 126.082031 L 115.941406 126.082031 L 115.941406 131.15625 L 121.015625 131.15625 L 121.015625 136.234375 L 105.726562 136.234375 L 105.726562 131.15625 L 110.800781 131.15625 L 110.800781 126.082031 L 105.726562 126.082031 L 105.726562 121.003906 L 100.652344 121.003906 L 100.652344 126.082031 L 95.578125 126.082031 L 95.578125 85.253906 L 100.652344 85.253906 L 100.652344 90.332031 L 105.726562 90.332031 L 105.726562 85.253906 L 110.800781 85.253906 L 110.800781 80.175781 L 105.726562 80.175781 L 105.726562 75.097656 L 121.015625 75.097656 L 121.015625 80.175781 L 115.941406 80.175781 L 115.941406 85.253906 L 121.015625 85.253906 L 121.015625 90.332031 L 126.085938 90.332031 L 126.085938 85.253906 L 131.160156 85.253906 Z M 131.160156 126.082031" fill="#cfc7b8"></path></g><g clip-path="url(#d1263952ba)"><path fill-rule="nonzero" fill-opacity="1" d="M 75.082031 100.554688 L 70.007812 100.554688 L 70.007812 95.476562 L 64.933594 95.476562 L 64.933594 85.253906 L 70.007812 85.253906 L 70.007812 80.175781 L 64.933594 80.175781 L 64.933594 75.097656 L 59.792969 75.097656 L 59.792969 69.953125 L 54.71875 69.953125 L 54.71875 64.875 L 49.648438 64.875 L 49.648438 69.953125 L 34.359375 69.953125 L 34.359375 64.875 L 29.214844 64.875 L 29.214844 69.953125 L 24.144531 69.953125 L 24.144531 75.03125 L 29.214844 75.03125 L 29.214844 95.410156 L 24.144531 95.410156 L 24.144531 100.554688 L 29.214844 100.554688 L 29.214844 136.234375 L 24.144531 136.234375 L 24.144531 141.3125 L 29.214844 141.3125 L 29.214844 146.390625 L 34.289062 146.390625 L 34.289062 141.3125 L 59.792969 141.3125 L 59.792969 146.390625 L 64.867188 146.390625 L 64.867188 141.3125 L 69.9375 141.3125 L 69.9375 136.234375 L 64.867188 136.234375 L 64.867188 131.15625 L 69.9375 131.15625 L 69.9375 136.234375 L 75.011719 136.234375 L 75.011719 131.15625 L 80.085938 131.15625 L 80.085938 126.082031 L 75.011719 126.082031 L 75.011719 110.777344 L 80.085938 110.777344 L 80.085938 105.703125 L 75.011719 105.703125 L 75.011719 100.554688 Z M 70.007812 100.554688 L 70.007812 105.632812 L 64.933594 105.632812 L 64.933594 100.554688 Z M 59.792969 75.097656 L 59.792969 80.175781 L 54.71875 80.175781 L 54.71875 75.097656 Z M 34.359375 75.097656 L 49.648438 75.097656 L 49.648438 80.175781 L 44.574219 80.175781 L 44.574219 85.253906 L 49.648438 85.253906 L 49.648438 90.332031 L 54.71875 90.332031 L 54.71875 85.253906 L 59.792969 85.253906 L 59.792969 95.476562 L 34.359375 95.476562 Z M 70.007812 126.082031 L 64.933594 126.082031 L 64.933594 121.003906 L 59.792969 121.003906 L 59.792969 126.082031 L 54.71875 126.082031 L 54.71875 131.15625 L 59.792969 131.15625 L 59.792969 136.234375 L 34.359375 136.234375 L 34.359375 100.554688 L 59.792969 100.554688 L 59.792969 105.632812 L 54.71875 105.632812 L 54.71875 110.710938 L 59.792969 110.710938 L 59.792969 115.789062 L 64.867188 115.789062 L 64.867188 110.710938 L 69.9375 110.710938 L 69.9375 126.082031 Z M 70.007812 126.082031" fill="#cfc7b8"></path></g><g clip-path="url(#8e3475613c)"><path fill-rule="nonzero" fill-opacity="1" d="M 197.453125 64.875 L 192.382812 64.875 L 192.382812 69.953125 L 187.308594 69.953125 L 187.308594 75.03125 L 192.382812 75.03125 L 192.382812 126.011719 L 187.308594 126.011719 L 187.308594 120.933594 L 182.234375 120.933594 L 182.234375 126.011719 L 177.023438 126.011719 L 177.023438 131.089844 L 182.097656 131.089844 L 182.097656 136.167969 L 166.808594 136.167969 L 166.808594 131.089844 L 171.882812 131.089844 L 171.882812 126.011719 L 166.808594 126.011719 L 166.808594 120.933594 L 161.738281 120.933594 L 161.738281 126.011719 L 156.664062 126.011719 L 156.664062 75.097656 L 161.738281 75.097656 L 161.738281 69.953125 L 156.664062 69.953125 L 156.664062 64.875 L 151.589844 64.875 L 151.589844 69.953125 L 146.515625 69.953125 L 146.515625 75.03125 L 151.589844 75.03125 L 151.589844 126.011719 L 146.515625 126.011719 L 146.515625 131.089844 L 151.589844 131.089844 L 151.589844 136.167969 L 156.664062 136.167969 L 156.664062 141.242188 L 161.738281 141.242188 L 161.738281 146.320312 L 166.808594 146.320312 L 166.808594 141.242188 L 182.097656 141.242188 L 182.097656 146.320312 L 187.171875 146.320312 L 187.171875 141.242188 L 192.246094 141.242188 L 192.246094 136.167969 L 197.316406 136.167969 L 197.316406 131.089844 L 202.390625 131.089844 L 202.390625 126.011719 L 197.316406 126.011719 L 197.316406 75.097656 L 202.390625 75.097656 L 202.390625 69.953125 L 197.316406 69.953125 L 197.316406 64.875 Z M 156.664062 136.304688 L 156.664062 131.226562 L 161.738281 131.226562 L 161.738281 136.304688 Z M 192.3125 136.304688 L 187.238281 136.304688 L 187.238281 131.226562 L 192.3125 131.226562 Z M 192.3125 136.304688" fill="#cfc7b8"></path></g><g clip-path="url(#99d6ddc992)"><path fill-rule="nonzero" fill-opacity="1" d="M 268.820312 105.703125 L 273.894531 105.703125 L 273.894531 100.554688 L 268.820312 100.554688 L 268.820312 64.875 L 263.75 64.875 L 263.75 100.554688 L 253.535156 100.554688 L 253.535156 95.476562 L 258.605469 95.476562 L 258.605469 90.398438 L 253.535156 90.398438 L 253.535156 85.324219 L 248.460938 85.324219 L 248.460938 90.398438 L 243.386719 90.398438 L 243.386719 85.324219 L 248.460938 85.324219 L 248.460938 80.246094 L 243.386719 80.246094 L 243.386719 75.167969 L 238.3125 75.167969 L 238.3125 80.246094 L 233.242188 80.246094 L 233.242188 75.167969 L 238.3125 75.167969 L 238.3125 69.953125 L 233.242188 69.953125 L 233.242188 64.875 L 228.167969 64.875 L 228.167969 69.953125 L 217.953125 69.953125 L 217.953125 64.875 L 212.878906 64.875 L 212.878906 69.953125 L 207.804688 69.953125 L 207.804688 75.03125 L 212.878906 75.03125 L 212.878906 136.234375 L 207.804688 136.234375 L 207.804688 141.3125 L 212.878906 141.3125 L 212.878906 146.390625 L 217.953125 146.390625 L 217.953125 141.3125 L 223.027344 141.3125 L 223.027344 136.234375 L 217.953125 136.234375 L 217.953125 75.097656 L 228.167969 75.097656 L 228.167969 80.175781 L 223.09375 80.175781 L 223.09375 85.253906 L 228.167969 85.253906 L 228.167969 90.332031 L 233.242188 90.332031 L 233.242188 85.253906 L 238.3125 85.253906 L 238.3125 90.332031 L 233.242188 90.332031 L 233.242188 95.410156 L 238.3125 95.410156 L 238.3125 100.554688 L 243.386719 100.554688 L 243.386719 105.632812 L 248.460938 105.632812 L 248.460938 110.710938 L 253.535156 110.710938 L 253.535156 105.632812 L 263.75 105.632812 L 263.75 136.234375 L 258.605469 136.234375 L 258.605469 141.3125 L 263.679688 141.3125 L 263.679688 146.390625 L 268.753906 146.390625 L 268.753906 141.3125 L 273.828125 141.3125 L 273.828125 136.234375 L 268.753906 136.234375 L 268.753906 105.703125 Z M 243.320312 100.554688 L 243.320312 95.476562 L 248.390625 95.476562 L 248.390625 100.554688 Z M 243.320312 100.554688" fill="#cfc7b8"></path></g></svg>